<svg xmlns="http://www.w3.org/2000/svg" viewBox="0 0 120 120" fill="none">
  <rect width="120" height="120" rx="30" fill="#0A1128"/>
  <rect x="24" y="14" width="24" height="88" rx="12" fill="#FFFFFF"/>
  <rect x="32" y="24" width="16" height="3" rx="1.5" fill="#2563EB"/>
  <rect x="32" y="32" width="16" height="3" rx="1.5" fill="#3B82F6"/>
  <rect x="32" y="40" width="10" height="3" rx="1.5" fill="#60A5FA"/>
  <path d="M48 14 H84 C96 14 106 24 106 36 C106 48 96 58 84 58 H48 V14 Z" fill="#38BDF8"/>
  <path d="M48 48 H76 C86 48 94 56 94 66 C94 76 86 84 76 84 H48 V48 Z" fill="#2563EB"/>
  <path d="M84 20 L102 20 L102 38 M102 20 L82 40" stroke="#38BDF8" stroke-width="4" stroke-linecap="round" stroke-linejoin="round"/>
</svg>